<svg xmlns="http://www.w3.org/2000/svg" xmlns:xlink="http://www.w3.org/1999/xlink" width="400" zoomAndPan="magnify" viewBox="0 0 300 44.999999" height="60" preserveAspectRatio="xMidYMid meet" version="1.2"><defs/><g id="c7db852d4e"><g style="fill:#d4dbb1;fill-opacity:1;"><g transform="translate(1.994331, 56.322334)"><path style="stroke:none" d="M 18.78125 0.515625 C 24.25 0.566406 28.460938 -0.390625 31.421875 -2.359375 C 34.378906 -4.335938 35.859375 -7.175781 35.859375 -10.875 C 35.859375 -12.945312 35.300781 -14.671875 34.1875 -16.046875 C 33.082031 -17.429688 31.664062 -18.566406 29.9375 -19.453125 C 28.21875 -20.335938 26.375 -21.0625 24.40625 -21.625 C 22.4375 -22.195312 20.585938 -22.679688 18.859375 -23.078125 C 17.128906 -23.472656 15.707031 -23.878906 14.59375 -24.296875 C 13.488281 -24.710938 12.9375 -25.242188 12.9375 -25.890625 C 12.9375 -27.515625 14.8125 -28.328125 18.5625 -28.328125 C 22.007812 -28.328125 24.203125 -26.820312 25.140625 -23.8125 L 34.90625 -26.46875 C 33.914062 -30.019531 32.003906 -32.753906 29.171875 -34.671875 C 26.335938 -36.597656 22.800781 -37.5625 18.5625 -37.5625 C 13.09375 -37.5625 8.878906 -36.578125 5.921875 -34.609375 C 2.960938 -32.640625 1.484375 -29.828125 1.484375 -26.171875 C 1.484375 -24.109375 2.035156 -22.394531 3.140625 -21.03125 C 4.253906 -19.675781 5.6875 -18.566406 7.4375 -17.703125 C 9.1875 -16.847656 11.035156 -16.148438 12.984375 -15.609375 C 14.929688 -15.066406 16.78125 -14.597656 18.53125 -14.203125 C 20.28125 -13.804688 21.707031 -13.382812 22.8125 -12.9375 C 23.925781 -12.5 24.484375 -11.910156 24.484375 -11.171875 C 24.484375 -10.429688 23.988281 -9.863281 23 -9.46875 C 22.007812 -9.070312 20.601562 -8.875 18.78125 -8.875 C 15.382812 -8.875 13.21875 -10.300781 12.28125 -13.15625 L 2.4375 -10.5 C 3.476562 -6.945312 5.414062 -4.207031 8.25 -2.28125 C 11.082031 -0.363281 14.59375 0.566406 18.78125 0.515625 Z M 18.78125 0.515625 "/></g></g><g style="fill:#d4dbb1;fill-opacity:1;"><g transform="translate(39.41058, 56.322334)"><path style="stroke:none" d="M 21.96875 -36.96875 C 26.007812 -36.96875 29.125 -35.921875 31.3125 -33.828125 C 33.507812 -31.734375 34.609375 -28.765625 34.609375 -24.921875 C 34.609375 -21.316406 33.597656 -18.503906 31.578125 -16.484375 C 29.554688 -14.460938 26.671875 -13.332031 22.921875 -13.09375 L 14.421875 -13.09375 L 14.421875 0 L 2.4375 0 L 2.4375 -36.96875 Z M 20.34375 -22.1875 C 22.707031 -22.1875 23.890625 -23.097656 23.890625 -24.921875 C 23.890625 -26.796875 22.707031 -27.734375 20.34375 -27.734375 L 14.421875 -27.734375 L 14.421875 -22.1875 Z M 20.34375 -22.1875 "/></g></g><g style="fill:#d4dbb1;fill-opacity:1;"><g transform="translate(75.200019, 56.322334)"><path style="stroke:none" d="M 14.421875 -27.734375 L 14.421875 -22.921875 L 30.765625 -22.921875 L 30.765625 -14.046875 L 14.421875 -14.046875 L 14.421875 -9.25 L 30.765625 -9.25 L 30.765625 0 L 2.4375 0 L 2.4375 -36.96875 L 30.765625 -36.96875 L 30.765625 -27.734375 Z M 14.421875 -27.734375 "/></g></g><g style="fill:#d4dbb1;fill-opacity:1;"><g transform="translate(108.031639, 56.322334)"><path style="stroke:none" d="M 23.296875 -15.453125 C 22.753906 -11.703125 21.222656 -9.828125 18.703125 -9.828125 C 17.179688 -9.828125 15.988281 -10.578125 15.125 -12.078125 C 14.257812 -13.585938 13.828125 -15.722656 13.828125 -18.484375 C 13.828125 -21.296875 14.257812 -23.453125 15.125 -24.953125 C 15.988281 -26.460938 17.179688 -27.21875 18.703125 -27.21875 C 19.835938 -27.21875 20.8125 -26.722656 21.625 -25.734375 C 22.4375 -24.742188 22.992188 -23.335938 23.296875 -21.515625 L 34.90625 -23.375 C 33.96875 -27.90625 32.09375 -31.398438 29.28125 -33.859375 C 26.46875 -36.328125 22.921875 -37.5625 18.640625 -37.5625 C 13.316406 -37.5625 9.210938 -35.910156 6.328125 -32.609375 C 3.441406 -29.304688 2 -24.597656 2 -18.484375 C 2 -12.421875 3.441406 -7.722656 6.328125 -4.390625 C 9.210938 -1.066406 13.316406 0.59375 18.640625 0.59375 C 22.921875 0.59375 26.46875 -0.648438 29.28125 -3.140625 C 32.09375 -5.628906 33.96875 -9.117188 34.90625 -13.609375 Z M 23.296875 -15.453125 "/></g></g><g style="fill:#d4dbb1;fill-opacity:1;"><g transform="translate(143.451135, 56.322334)"><path style="stroke:none" d="M 34.3125 -26.625 L 24.25 -26.625 L 24.25 0 L 12.28125 0 L 12.28125 -26.625 L 2.140625 -26.625 L 2.140625 -36.96875 L 34.3125 -36.96875 Z M 34.3125 -26.625 "/></g></g><g style="fill:#d4dbb1;fill-opacity:1;"><g transform="translate(179.684283, 56.322334)"><path style="stroke:none" d="M 30.390625 -15.96875 C 33.054688 -13.851562 34.390625 -10.550781 34.390625 -6.0625 L 34.390625 0 L 23.4375 0 L 23.4375 -7.609375 C 23.4375 -10.867188 21.910156 -12.769531 18.859375 -13.3125 L 14.421875 -13.3125 L 14.421875 0 L 2.4375 0 L 2.4375 -36.96875 L 21.96875 -36.96875 C 26.007812 -36.96875 29.125 -35.945312 31.3125 -33.90625 C 33.507812 -31.863281 34.609375 -28.941406 34.609375 -25.140625 C 34.609375 -21.003906 33.203125 -17.945312 30.390625 -15.96875 Z M 20.34375 -22.1875 C 22.707031 -22.1875 23.890625 -23.097656 23.890625 -24.921875 C 23.890625 -26.796875 22.707031 -27.734375 20.34375 -27.734375 L 14.421875 -27.734375 L 14.421875 -22.1875 Z M 20.34375 -22.1875 "/></g></g><g style="fill:#d4dbb1;fill-opacity:1;"><g transform="translate(215.695519, 56.322334)"><path style="stroke:none" d="M 2.4375 -36.96875 L 14.421875 -36.96875 L 14.421875 -16.640625 C 14.421875 -14.472656 14.773438 -12.796875 15.484375 -11.609375 C 16.203125 -10.421875 17.226562 -9.828125 18.5625 -9.828125 C 19.84375 -9.828125 20.828125 -10.421875 21.515625 -11.609375 C 22.210938 -12.796875 22.5625 -14.472656 22.5625 -16.640625 L 22.5625 -36.96875 L 34.609375 -36.96875 L 34.609375 -16.640625 C 34.609375 -11.171875 33.203125 -6.929688 30.390625 -3.921875 C 27.578125 -0.910156 23.609375 0.59375 18.484375 0.59375 C 13.359375 0.59375 9.398438 -0.910156 6.609375 -3.921875 C 3.828125 -6.929688 2.4375 -11.171875 2.4375 -16.640625 Z M 2.4375 -36.96875 "/></g></g><g style="fill:#d4dbb1;fill-opacity:1;"><g transform="translate(252.520224, 56.322334)"><path style="stroke:none" d="M 43.109375 0 L 31.0625 0 L 31.0625 -14.859375 L 25.140625 -4 L 20.40625 -4 L 14.421875 -14.859375 L 14.421875 0 L 2.4375 0 L 2.4375 -36.96875 L 13.15625 -36.96875 L 22.78125 -17.671875 L 32.390625 -36.96875 L 43.109375 -36.96875 Z M 43.109375 0 "/></g></g></g></svg>